<svg width="159" height="42" viewBox="0 0 159 42" fill="none" xmlns="http://www.w3.org/2000/svg">
<path d="M63.9839 30.2768L62.6339 25.8018H55.6089L54.2089 30.2768H50.9589L56.8589 11.5268H61.6089L67.2339 30.2768H63.9839ZM56.5589 22.8018H61.7339L59.2089 14.3768L56.5589 22.8018Z" fill="#051844"/>
<path d="M82.9892 11.5268H85.9892V30.2768H82.9892V22.4018H72.4892V30.2768H69.4892V11.5268H72.4892V19.4018H82.9892V11.5268Z" fill="#051844"/>
<path d="M101.264 30.2768L99.9142 25.8018H92.8892L91.4892 30.2768H88.2392L94.1392 11.5268H98.8892L104.514 30.2768H101.264ZM93.8392 22.8018H99.0142L96.4892 14.3768L93.8392 22.8018Z" fill="#051844"/>
<path d="M123.769 11.5268V30.2768H120.769V14.5268H112.769V17.7768C112.769 27.8518 112.669 30.2768 106.769 30.2768V27.2768C109.569 27.2768 109.769 27.1518 109.769 17.7768V11.5268H123.769Z" fill="#051844"/>
<path d="M139.783 11.5268H142.783V30.2768H139.783V16.1268L129.258 30.2768H126.008V11.5268H129.258V25.6768L139.783 11.5268Z" fill="#051844"/>
<path d="M154.751 20.5268C157.201 20.9268 158.576 22.1768 158.576 24.6768C158.576 28.8268 156.051 30.2768 151.851 30.2768C148.501 30.2768 145.026 28.8268 145.026 24.1768H148.026C148.026 26.0018 148.876 27.2518 151.851 27.2768C155.176 27.2768 155.576 26.0018 155.576 24.1768C155.576 22.4768 153.651 22.0268 151.651 22.0268H150.576V19.1518H151.651C153.651 19.1518 155.076 18.7518 155.076 16.8018C155.076 14.7768 153.701 14.5018 151.851 14.5018C148.876 14.5018 148.276 15.7518 148.276 18.1018H145.276C145.276 13.2768 148.001 11.5268 151.851 11.5268C155.551 11.5268 158.076 12.7768 158.076 16.3518C158.076 18.5768 156.926 19.9018 154.751 20.5268Z" fill="#051844"/>
<path d="M0.54211 10.1862C-1.95693 3.8589 4.65481 -2.22154 10.7511 0.797553C12.4214 1.62472 13.7198 3.04938 14.3889 4.789L20.9288 21.7928L26.3563 6.30839C27.0082 4.44847 28.3607 2.90758 30.1174 2.01409C36.5217 -1.24328 43.5234 5.3232 40.6002 11.8868C39.775 13.7395 38.2459 15.1873 36.3509 15.9101L20.9288 21.7928L36.4997 27.5717C38.3035 28.2411 39.7777 29.5834 40.6128 31.3167C43.6121 37.5417 37.2431 44.1361 30.9176 41.355L30.3872 41.1218C28.4625 40.2756 26.9707 38.6747 26.2622 36.695L20.9288 21.7928L14.4066 37.283C13.7245 38.903 12.4766 40.2196 10.8956 40.9875C4.86672 43.9159 -1.52007 37.6887 1.11338 31.5254C1.90252 29.6785 3.42559 28.2225 5.31084 27.53L20.9288 21.7928L5.65963 16.0279C3.55626 15.2338 1.88592 13.5886 1.06002 11.4975L0.54211 10.1862Z" fill="#051844"/>
</svg>
