<svg width="322" height="49" viewBox="0 0 322 49" fill="none" xmlns="http://www.w3.org/2000/svg">
<path d="M25 0L30.1265 19.2324L50 24.1935L30.1265 29.1547L25 48.3871L19.8735 29.1547L0 24.1935L19.8735 19.2324L25 0Z" fill="#051844"/>
<path d="M76.625 15.25V34H73.625V18.25H63.125V34H60.125V15.25H76.625Z" fill="#051844"/>
<path d="M86.45 15.25C91.85 15.25 94.825 17.25 94.825 21.6C94.825 26.125 91.85 28.125 86.45 28.125H81.875V34H78.875V15.25H86.45ZM86.45 25.125C89.975 25.125 91.825 24.375 91.825 21.6C91.825 19.025 89.975 18.25 86.45 18.25H81.875V25.125H86.45Z" fill="#051844"/>
<path d="M106.138 34.25C101.538 34.25 97.0635 30.75 97.0635 24.75C97.0635 18.5 101.538 15 106.138 15C110.713 15 115.188 18.5 115.188 24.75C115.188 30.75 110.713 34.25 106.138 34.25ZM106.138 31C109.838 31 111.938 28.425 111.938 24.75C111.938 20.75 109.838 18.25 106.138 18.25C102.413 18.25 100.313 20.75 100.313 24.75C100.313 28.5 102.413 31 106.138 31Z" fill="#051844"/>
<path d="M136.674 24.625C136.674 28.3 133.924 31.55 128.574 32.05V34H125.574V32.05C120.199 31.55 117.449 28.3 117.449 24.625C117.449 20.95 120.199 17.7 125.574 17.2V15.25H128.574V17.2C133.924 17.7 136.674 20.95 136.674 24.625ZM120.699 24.6C120.699 27.25 122.174 28.525 125.574 28.8V20.45C122.174 20.725 120.699 21.95 120.699 24.6ZM128.574 28.8C131.949 28.525 133.424 27.25 133.424 24.6C133.424 21.95 131.949 20.725 128.574 20.45V28.8Z" fill="#051844"/>
<path d="M148.009 34.25C143.409 34.25 138.934 30.75 138.934 24.75C138.934 18.5 143.409 15 148.009 15C152.584 15 157.059 18.5 157.059 24.75C157.059 30.75 152.584 34.25 148.009 34.25ZM148.009 31C151.709 31 153.809 28.425 153.809 24.75C153.809 20.75 151.709 18.25 148.009 18.25C144.284 18.25 142.184 20.75 142.184 24.75C142.184 28.5 144.284 31 148.009 31Z" fill="#051844"/>
<path d="M167.383 15.25C172.783 15.25 175.758 17.25 175.758 21.6C175.758 26.125 172.783 28.125 167.383 28.125H162.808V34H159.808V15.25H167.383ZM167.383 25.125C170.908 25.125 172.758 24.375 172.758 21.6C172.758 19.025 170.908 18.25 167.383 18.25H162.808V25.125H167.383Z" fill="#051844"/>
<path d="M191.771 15.25H194.771V34H191.771V19.85L181.246 34H177.996V15.25H181.246V29.4L191.771 15.25Z" fill="#051844"/>
<path d="M210.515 18.25H200.015V23.125H207.265V26.125H200.015V31H210.515V34H197.015V15.25H210.515V18.25Z" fill="#051844"/>
<path d="M226.262 15.25H229.262V34H226.262V26.125H215.762V34H212.762V15.25H215.762V23.125H226.262V15.25Z" fill="#051844"/>
<path d="M246.512 15.25V18.25H240.512V34H237.512V18.25H231.512V15.25H246.512Z" fill="#051844"/>
<path d="M259.796 34L258.445 29.525H251.421L250.021 34H246.771L252.671 15.25H257.421L263.046 34H259.796ZM252.371 26.525H257.546L255.021 18.1L252.371 26.525Z" fill="#051844"/>
<path d="M281.801 31H284.551V41H281.801V34H265.301V15.25H268.301V31H278.801V15.25H281.801V31Z" fill="#051844"/>
<path d="M300.585 15.25H303.585V34H300.585V19.85L290.06 34H286.81V15.25H290.06V29.4L300.585 15.25Z" fill="#051844"/>
<path d="M321.778 15.25V34H318.778V28.125H314.203C313.878 28.125 313.528 28.125 313.203 28.1L310.253 34H306.528L309.928 27.375C307.528 26.425 305.828 24.55 305.828 21.6C305.828 17.25 309.803 15.25 314.203 15.25H321.778ZM318.778 25.125V18.25H314.203C310.678 18.25 308.828 19.025 308.828 21.6C308.828 24.375 310.678 25.125 314.203 25.125H318.778Z" fill="#051844"/>
</svg>
