<svg width="159" height="65" viewBox="0 0 159 65" fill="none" xmlns="http://www.w3.org/2000/svg">
<path d="M81.9 32.5C81.4 29.325 79.8 28.25 76.75 28.25C73.5 28.25 71.375 30.5 71.375 34.675C71.375 38.5 73.5 41 76.75 41C79.8 41 81.25 39.85 81.95 36.5H85.325C84.725 42.275 80.975 44.25 76.75 44.25C72.4 44.25 68.125 40.75 68.125 34.675C68.125 28.5 72.4 25 76.75 25C80.9 25 84.6 26.875 85.275 32.5H81.9ZM96.658 44.25C92.058 44.25 87.583 40.75 87.583 34.75C87.583 28.5 92.058 25 96.658 25C101.233 25 105.708 28.5 105.708 34.75C105.708 40.75 101.233 44.25 96.658 44.25ZM96.658 41C100.358 41 102.458 38.425 102.458 34.75C102.458 30.75 100.358 28.25 96.658 28.25C92.933 28.25 90.833 30.75 90.833 34.75C90.833 38.5 92.933 41 96.658 41ZM120.232 34C122.982 34.425 124.482 35.175 124.482 38.65C124.482 42.55 121.182 44 116.032 44H108.457V25.25H116.032C119.932 25.25 122.932 26.4 122.932 29.85C122.932 32.05 122.732 33.325 120.232 34ZM111.457 28.25V32.725H116.032C118.557 32.725 119.907 31.975 119.907 30.35C119.907 28.8 118.557 28.25 116.032 28.25H111.457ZM116.032 41C119.557 41 121.457 40.375 121.457 38.275C121.457 36.275 119.557 35.725 116.032 35.725H111.457V41H116.032ZM140.243 28.25H129.743V33.125H136.993V36.125H129.743V41H140.243V44H126.743V25.25H140.243V28.25ZM157.49 25.25V28.25H151.49V44H148.49V28.25H142.49V25.25H157.49Z" fill="#051844"/>
<mask id="mask0_127_2847" style="mask-type:alpha" maskUnits="userSpaceOnUse" x="0" y="0" width="65" height="65">
<path d="M32.5 0L33.8171 22.4145C33.8758 23.4135 35.203 23.7164 35.6893 22.8418L46.6012 3.21851L38.0626 23.9847C37.682 24.9103 38.7463 25.759 39.564 25.1821L57.9095 12.2366L41.2064 27.2415C40.4619 27.9103 41.0526 29.1368 42.0396 28.9717L64.1852 25.2681L42.6257 31.5398C41.6648 31.8193 41.6648 33.1807 42.6257 33.4602L64.1852 39.7319L42.0396 36.0283C41.0526 35.8632 40.4619 37.0897 41.2064 37.7585L57.9095 52.7634L39.564 39.8179C38.7463 39.241 37.682 40.0897 38.0626 41.0153L46.6012 61.7815L35.6893 42.1582C35.203 41.2836 33.8758 41.5865 33.8171 42.5855L32.5 65L31.1829 42.5855C31.1242 41.5865 29.797 41.2836 29.3107 42.1582L18.3988 61.7815L26.9374 41.0153C27.318 40.0897 26.2537 39.241 25.436 39.8179L7.09048 52.7634L23.7936 37.7585C24.5381 37.0897 23.9474 35.8632 22.9604 36.0283L0.814842 39.7319L22.3743 33.4602C23.3352 33.1807 23.3352 31.8193 22.3743 31.5398L0.814842 25.2681L22.9604 28.9717C23.9474 29.1368 24.5381 27.9103 23.7936 27.2415L7.09048 12.2366L25.436 25.1821C26.2537 25.759 27.318 24.9103 26.9374 23.9847L18.3988 3.21851L29.3107 22.8418C29.797 23.7164 31.1242 23.4135 31.1829 22.4145L32.5 0Z" fill="black"/>
</mask>
<g mask="url(#mask0_127_2847)">
<circle cx="32.5" cy="32.4999" r="25.35" fill="#051844"/>
</g>
</svg>
